<?xml version="1.0" encoding="utf-8"?>
<COLLADA xmlns="http://www.collada.org/2005/11/COLLADASchema" version="1.4.1" xmlns:xsi="http://www.w3.org/2001/XMLSchema-instance">
  <asset>
    <contributor>
      <author>Blender User</author>
      <authoring_tool>Blender 3.0.1 commit date:2022-01-25, commit time:17:19, hash:dc2d18018171</authoring_tool>
    </contributor>
    <created>2026-09-03T21:47:00</created>
    <modified>2026-09-03T21:47:00</modified>
    <unit name="meter" meter="1"/>
    <up_axis>Z_UP</up_axis>
  </asset>
  <library_cameras>
    <camera id="Camera-camera" name="Camera">
      <optics>
        <technique_common>
          <perspective>
            <xfov sid="xfov">39.59775</xfov>
            <aspect_ratio>1.777778</aspect_ratio>
            <znear sid="znear">0.1</znear>
            <zfar sid="zfar">100</zfar>
          </perspective>
        </technique_common>
      </optics>
      <extra>
        <technique profile="blender">
          <shiftx sid="shiftx" type="float">0</shiftx>
          <shifty sid="shifty" type="float">0</shifty>
          <dof_distance sid="dof_distance" type="float">10</dof_distance>
        </technique>
      </extra>
    </camera>
  </library_cameras>
  <library_lights>
    <light id="Light-light" name="Light">
      <technique_common>
        <point>
          <color sid="color">1000 1000 1000</color>
          <constant_attenuation>1</constant_attenuation>
          <linear_attenuation>0</linear_attenuation>
          <quadratic_attenuation>0.00111109</quadratic_attenuation>
        </point>
      </technique_common>
      <extra>
        <technique profile="blender">
          <type sid="type" type="int">0</type>
          <flag sid="flag" type="int">0</flag>
          <mode sid="mode" type="int">1</mode>
          <gamma sid="blender_gamma" type="float">1</gamma>
          <red sid="red" type="float">1</red>
          <green sid="green" type="float">1</green>
          <blue sid="blue" type="float">1</blue>
          <shadow_r sid="blender_shadow_r" type="float">0</shadow_r>
          <shadow_g sid="blender_shadow_g" type="float">0</shadow_g>
          <shadow_b sid="blender_shadow_b" type="float">0</shadow_b>
          <energy sid="blender_energy" type="float">1000</energy>
          <dist sid="blender_dist" type="float">29.99998</dist>
          <spotsize sid="spotsize" type="float">75</spotsize>
          <spotblend sid="spotblend" type="float">0.15</spotblend>
          <att1 sid="att1" type="float">0</att1>
          <att2 sid="att2" type="float">1</att2>
          <falloff_type sid="falloff_type" type="int">2</falloff_type>
          <clipsta sid="clipsta" type="float">0.04999995</clipsta>
          <clipend sid="clipend" type="float">30.002</clipend>
          <bias sid="bias" type="float">1</bias>
          <soft sid="soft" type="float">3</soft>
          <bufsize sid="bufsize" type="int">2880</bufsize>
          <samp sid="samp" type="int">3</samp>
          <buffers sid="buffers" type="int">1</buffers>
          <area_shape sid="area_shape" type="int">1</area_shape>
          <area_size sid="area_size" type="float">0.1</area_size>
          <area_sizey sid="area_sizey" type="float">0.1</area_sizey>
          <area_sizez sid="area_sizez" type="float">1</area_sizez>
        </technique>
      </extra>
    </light>
  </library_lights>
  <library_effects>
    <effect id="vegetation-effect">
      <profile_COMMON>
        <technique sid="common">
          <lambert>
            <emission>
              <color sid="emission">0 0 0 1</color>
            </emission>
            <diffuse>
              <color sid="diffuse">0.007 0.558 0.005 1</color>
            </diffuse>
            <reflectivity>
              <float sid="specular">0.5</float>
            </reflectivity>
          </lambert>
        </technique>
      </profile_COMMON>
    </effect>
    <effect id="wall-effect">
      <profile_COMMON>
        <technique sid="common">
          <lambert>
            <emission>
              <color sid="emission">0 0 0 1</color>
            </emission>
            <diffuse>
              <color sid="diffuse">1 0.5 0.2 1</color>
            </diffuse>
            <reflectivity>
              <float sid="specular">0.5</float>
            </reflectivity>
          </lambert>
        </technique>
      </profile_COMMON>
    </effect>
    <effect id="roof-effect">
      <profile_COMMON>
        <technique sid="common">
          <lambert>
            <emission>
              <color sid="emission">0 0 0 1</color>
            </emission>
            <diffuse>
              <color sid="diffuse">0.29 0.25 0.21 1</color>
            </diffuse>
            <reflectivity>
              <float sid="specular">0.5</float>
            </reflectivity>
          </lambert>
        </technique>
      </profile_COMMON>
    </effect>
  </library_effects>
  <library_images/>
  <library_materials>
    <material id="vegetation-material" name="vegetation">
      <instance_effect url="#vegetation-effect"/>
    </material>
    <material id="wall-material" name="wall">
      <instance_effect url="#wall-effect"/>
    </material>
    <material id="roof-material" name="roof">
      <instance_effect url="#roof-effect"/>
    </material>
  </library_materials>
  <library_geometries>
    <geometry id="map_2_osm_vegetation-mesh" name="map_2.osm_vegetation">
      <mesh>
        <source id="map_2_osm_vegetation-mesh-positions">
          <float_array id="map_2_osm_vegetation-mesh-positions-array" count="681">228.6865 -17.72089 0 229.6086 -18.70047 0 229.9266 -20.63742 0 228.4879 -21.89538 0 172.3853 -22.72088 0 172.0117 -21.96391 0 171.9481 -21.20694 0 172.4091 -20.42769 0 164.1026 -20.26093 0 164.977 -21.0958 0 165.0565 -22.28692 0 164.1504 -22.96599 0 62.43767 -24.76001 0 -102.8417 -27.84304 0 -103.6127 -26.88568 0 -103.4935 -26.03966 0 -102.7781 -25.16024 0 62.14353 -22.25532 0 -138.4602 -26.88504 0 -138.4206 -31.05952 0 -515.1945 -38.55465 0 -515.3055 -35.23732 0 -17.57463 77.50894 0 61.65769 79.45729 0 63.55024 1.433481 0 -7.877347 0.620543 0 -16.81969 6.565021 0 -93.77854 77.15337 0 -89.45446 77.13105 0 -89.35915 72.53355 0 -35.36378 73.66849 0 -35.45914 78.25485 0 -34.36222 78.15466 0 -33.22556 77.87635 0 -32.20814 77.1305 0 -31.21456 76.12863 0 -30.42764 75.08222 0 -30.34816 73.85771 0 -30.34818 70.76303 0 -36.04738 70.6406 0 -48.20886 70.37351 0 -61.68982 70.08419 0 -89.19226 69.48339 0 -88.90625 59.1418 0 -88.44546 42.41048 0 -75.18701 41.68673 0 -75.09169 35.83132 0 -92.71398 37.92436 0 -98.15032 76.51891 0 -100.2806 74.91594 0 -101.775 72.57826 0 -102.6255 69.37227 0 -102.1971 20.33602 0 -102.1971 18.53265 0 -101.3466 17.25246 0 -99.63765 15.97226 0 -97.08611 15.43789 0 -41.43694 14.31297 0 -49.00426 -0.5592638 0 -14.25226 -0.02509921 0 -65.18779 15.21485 0 -46.1267 15.43733 0 -54.44122 -0.5592206 0 -64.78256 -0.6036536 0 -92.38812 35.47533 0 -76.50667 27.15956 0 -76.40347 15.86063 0 -68.08908 15.76035 0 -67.89849 -0.7483372 0 -92.07069 -1.193318 0 -112.752 76.40782 0 -110.9397 76.19629 0 -109.7713 74.91609 0 -108.5957 26.9485 0 -109.1283 24.71099 0 -111.2586 23.85387 0 -113.1822 24.82238 0 -113.818 26.73709 0 -114.9936 73.53582 0 -114.461 75.77333 0 -114.1343 122.572 0 -115.1994 121.8262 0 -115.8433 119.9004 0 -115.3113 87.92944 0 -115.2001 86.00361 0 -114.0316 84.41172 0 -112.434 83.76604 0 -110.3037 84.83467 0 -109.6598 87.07218 0 -110.3031 120.546 0 -110.939 122.0377 0 -112.4333 122.8837 0 -35.0772 152.6163 0 -34.93407 162.8465 0 64.82042 164.4275 0 64.9715 159.0953 0 45.24314 158.6165 0 46.38013 111.083 0 87.27582 112.0631 0 87.26776 120.7794 0 90.53463 120.8017 0 91.17086 96.76782 0 91.06758 93.57295 0 89.46994 90.47825 0 86.06 87.49484 0 40.97521 87.1827 0 36.08679 87.43871 0 12.14543 87.07127 0 12.09773 91.3682 0 -93.50811 89.81039 0 -94.19903 131.7333 0 -93.5631 134.7167 0 -91.96541 135.9968 0 -88.87339 137.0654 0 -75.7582 138.3455 0 -69.32777 139.158 0 -34.93419 140.2487 0 114.1431 58.45201 0 114.5174 19.53473 0 104.661 19.11155 0 103.5958 18.47701 0 103.4846 16.98533 0 104.2318 15.53818 0 106.0441 15.27105 0 122.7842 15.80568 0 123.2054 16.45134 0 122.1395 57.27217 0 121.6626 58.24064 0 120.5418 58.66364 0 -34.83151 18.95495 0 -44.01227 23.99778 0 -44.56847 54.36574 0 -35.49106 54.53266 0 -99.63589 130.8874 0 -98.78611 83.23149 0 -100.0658 83.44301 0 -101.7748 84.18888 0 -102.7286 86.32623 0 -103.6898 120.8687 0 -103.4752 123.9522 0 -102.8392 126.6239 0 -101.5595 128.5386 0 130.0801 63.72886 0 129.7145 62.81603 0 129.8338 60.93473 0 130.7559 59.83269 0 138.1084 60.05548 0 138.9748 60.52304 0 139.2927 61.6585 0 139.1973 62.71604 0 139.0701 63.72904 0 137.9255 64.6975 0 130.9545 64.48585 0 131.0826 16.39583 0 135.7247 16.50725 0 140.3906 16.61866 0 140.0965 15.16037 0 139.3176 14.01376 0 138.1491 13.10092 0 133.3958 12.94497 0 132.1558 13.40136 0 131.2098 14.92642 0 145.8752 17.0752 0 150.9465 17.20889 0 156.5106 17.35374 0 156.3994 15.93998 0 155.6125 14.73771 0 154.15 13.69127 0 148.7766 13.65775 0 147.3776 13.94715 0 146.2409 15.24956 0 129.126 77.42114 0 129.126 79.12432 0 129.7142 80.41564 0 131.2006 81.15039 0 136.6772 81.25068 0 137.7105 80.60505 0 138.2034 79.12451 0 138.4578 77.63284 0 133.9668 77.52143 0 144.92 77.2545 0 144.7213 78.93541 0 144.6735 80.70539 0 145.3094 82.04124 0 146.5415 82.18598 0 148.9181 81.84095 0 150.7861 81.10628 0 152.6143 80.07106 0 154.3392 78.73526 0 154.84 77.49962 0 150.0708 77.43272 0 164.0762 83.37752 0 165.7136 82.77644 0 166.4449 80.89515 0 167.479 52.03003 0 162.7972 51.78501 0 162.0096 80.65014 0 162.3752 82.46466 0 162.8927 48.69033 0 167.6301 48.8129 0 168.8471 17.76593 0 168.7279 15.99595 0 168.1795 14.905 0 166.6613 14.48195 0 165.143 14.90493 0 163.9825 16.90865 0 68.04914 11.49681 0 122.3629 12.35476 0 123.3963 11.68687 0 123.4601 1.601321 0 122.6652 0.9333893 0 68.04926 0.3871232 0 66.95233 0.6876745 0 66.22103 2.023501 0 65.98248 10.10529 0 66.65016 11.01812 0 163.0902 95.75622 0 164.1951 95.75625 0 165.0138 95.36666 0 165.4351 94.28686 0 165.5624 91.49275 0 165.2365 90.61331 0 164.0363 90.0233 0 162.6373 90.27929 0 161.9855 91.42587 0 161.8821 94.45375 0 162.4703 95.2664 0</float_array>
          <technique_common>
            <accessor source="#map_2_osm_vegetation-mesh-positions-array" count="227" stride="3">
              <param name="X" type="float"/>
              <param name="Y" type="float"/>
              <param name="Z" type="float"/>
            </accessor>
          </technique_common>
        </source>
        <source id="map_2_osm_vegetation-mesh-normals">
          <float_array id="map_2_osm_vegetation-mesh-normals-array" count="3">0 0 1</float_array>
          <technique_common>
            <accessor source="#map_2_osm_vegetation-mesh-normals-array" count="1" stride="3">
              <param name="X" type="float"/>
              <param name="Y" type="float"/>
              <param name="Z" type="float"/>
            </accessor>
          </technique_common>
        </source>
        <vertices id="map_2_osm_vegetation-mesh-vertices">
          <input semantic="POSITION" source="#map_2_osm_vegetation-mesh-positions"/>
        </vertices>
        <triangles material="vegetation-material" count="179">
          <input semantic="VERTEX" source="#map_2_osm_vegetation-mesh-vertices" offset="0"/>
          <input semantic="NORMAL" source="#map_2_osm_vegetation-mesh-normals" offset="1"/>
          <p>3 0 2 0 1 0 13 0 12 0 17 0 21 0 19 0 18 0 25 0 24 0 23 0 39 0 38 0 30 0 52 0 54 0 55 0 57 0 58 0 59 0 60 0 62 0 61 0 68 0 67 0 66 0 78 0 72 0 70 0 80 0 82 0 89 0 116 0 108 0 96 0 126 0 127 0 128 0 132 0 130 0 129 0 135 0 134 0 137 0 152 0 143 0 145 0 154 0 161 0 159 0 163 0 170 0 168 0 179 0 177 0 175 0 182 0 181 0 184 0 193 0 192 0 196 0 201 0 200 0 205 0 206 0 213 0 211 0 224 0 222 0 220 0 1 0 0 0 3 0 0 0 7 0 3 0 7 0 6 0 5 0 5 0 4 0 7 0 4 0 3 0 7 0 9 0 8 0 11 0 8 0 17 0 12 0 17 0 16 0 13 0 16 0 15 0 13 0 15 0 14 0 13 0 12 0 11 0 8 0 11 0 10 0 9 0 21 0 20 0 19 0 23 0 22 0 25 0 22 0 26 0 25 0 28 0 27 0 29 0 27 0 47 0 43 0 29 0 27 0 42 0 47 0 46 0 44 0 46 0 45 0 44 0 44 0 43 0 47 0 43 0 42 0 27 0 32 0 31 0 30 0 33 0 32 0 30 0 30 0 29 0 41 0 29 0 42 0 41 0 41 0 40 0 30 0 40 0 39 0 30 0 34 0 33 0 30 0 36 0 35 0 37 0 35 0 34 0 30 0 38 0 37 0 30 0 30 0 37 0 35 0 56 0 48 0 51 0 48 0 49 0 50 0 51 0 48 0 50 0 52 0 53 0 54 0 51 0 52 0 56 0 55 0 56 0 52 0 60 0 63 0 62 0 65 0 64 0 66 0 64 0 69 0 66 0 69 0 68 0 66 0 71 0 70 0 72 0 70 0 79 0 78 0 78 0 77 0 73 0 77 0 76 0 73 0 76 0 75 0 73 0 75 0 74 0 73 0 73 0 72 0 78 0 91 0 80 0 90 0 80 0 81 0 82 0 82 0 83 0 89 0 80 0 89 0 90 0 83 0 84 0 88 0 84 0 85 0 88 0 85 0 86 0 87 0 87 0 88 0 85 0 88 0 89 0 83 0 93 0 92 0 96 0 92 0 116 0 96 0 116 0 115 0 109 0 115 0 114 0 109 0 114 0 113 0 110 0 113 0 112 0 110 0 112 0 111 0 110 0 110 0 109 0 114 0 109 0 108 0 116 0 108 0 107 0 106 0 106 0 105 0 97 0 105 0 104 0 97 0 104 0 103 0 101 0 103 0 102 0 101 0 101 0 100 0 98 0 100 0 99 0 98 0 101 0 98 0 104 0 97 0 104 0 98 0 108 0 106 0 97 0 94 0 93 0 96 0 108 0 97 0 96 0 96 0 95 0 94 0 128 0 117 0 126 0 117 0 118 0 126 0 118 0 119 0 123 0 119 0 120 0 121 0 123 0 119 0 121 0 121 0 122 0 123 0 123 0 124 0 118 0 124 0 125 0 118 0 125 0 126 0 118 0 132 0 131 0 130 0 134 0 133 0 138 0 133 0 141 0 138 0 141 0 140 0 139 0 139 0 138 0 141 0 138 0 137 0 134 0 137 0 136 0 135 0 152 0 142 0 143 0 143 0 144 0 145 0 145 0 146 0 152 0 146 0 147 0 148 0 151 0 146 0 149 0 148 0 149 0 146 0 149 0 150 0 151 0 151 0 152 0 146 0 154 0 153 0 161 0 161 0 160 0 159 0 159 0 158 0 154 0 158 0 157 0 154 0 157 0 156 0 154 0 156 0 155 0 154 0 163 0 162 0 170 0 170 0 169 0 168 0 168 0 167 0 163 0 167 0 166 0 163 0 166 0 165 0 163 0 165 0 164 0 163 0 172 0 171 0 179 0 179 0 178 0 177 0 177 0 176 0 175 0 175 0 174 0 179 0 174 0 173 0 172 0 179 0 174 0 172 0 181 0 180 0 190 0 190 0 189 0 188 0 188 0 187 0 190 0 187 0 186 0 190 0 186 0 185 0 190 0 185 0 184 0 181 0 190 0 185 0 181 0 184 0 183 0 182 0 192 0 191 0 196 0 191 0 197 0 196 0 196 0 195 0 194 0 193 0 196 0 194 0 199 0 198 0 200 0 198 0 205 0 200 0 205 0 204 0 201 0 204 0 203 0 201 0 203 0 202 0 201 0 207 0 206 0 211 0 206 0 215 0 214 0 213 0 206 0 214 0 213 0 212 0 211 0 211 0 210 0 207 0 210 0 209 0 207 0 209 0 208 0 207 0 217 0 216 0 226 0 226 0 225 0 219 0 225 0 224 0 219 0 224 0 223 0 222 0 222 0 221 0 220 0 220 0 219 0 224 0 219 0 218 0 217 0 226 0 219 0 217 0</p>
        </triangles>
      </mesh>
    </geometry>
    <geometry id="map_2_osm_buildings-mesh" name="map_2.osm_buildings">
      <mesh>
        <source id="map_2_osm_buildings-mesh-positions">
          <float_array id="map_2_osm_buildings-mesh-positions-array" count="810">-144.3171 34.41873 0 -144.5148 79.84823 0 -150.8102 79.82611 0 -150.8181 81.60722 0 -161.4296 81.55181 0 -161.3742 69.49591 0 -159.2519 69.50699 0 -159.0938 34.40795 0 -153.1879 34.43007 0 -153.2037 38.24833 0 -150.1037 38.27052 0 -150.0879 34.3966 0 -144.3171 34.41873 35.43024 -144.5148 79.84823 35.43024 -150.8102 79.82611 35.43024 -150.8181 81.60722 35.43024 -161.4296 81.55181 35.43024 -161.3742 69.49591 35.43024 -159.2519 69.50699 35.43024 -159.0938 34.40795 35.43024 -153.1879 34.43007 35.43024 -153.2037 38.24833 35.43024 -150.1037 38.27052 35.43024 -150.0879 34.3966 35.43024 129.0732 -63.79877 0 128.8107 -52.96739 0 -5.914053 -56.18579 0 -5.651751 -67.05058 0 129.0732 -63.79877 15 128.8107 -52.96739 15 -5.914053 -56.18579 15 -5.651751 -67.05058 15 33.03539 -87.08801 0 35.36486 -171.2678 0 44.67311 -171.0117 0 42.51839 -86.82079 0 33.03539 -87.08801 15 35.36486 -171.2678 15 44.67311 -171.0117 15 42.51839 -86.82079 15 -147.1453 102.7467 0 -147.5735 147.8534 0 -161.6743 147.709 0 -161.4127 120.4023 0 -162.8673 120.3912 0 -162.8356 117.085 0 -163.6861 117.0739 0 -163.6464 113.5451 0 -171.6189 113.4674 0 -171.6348 115.3487 0 -184.9567 115.2266 0 -184.8536 104.3061 0 -182.4134 104.3283 0 -182.3579 98.25029 0 -163.925 98.42791 0 -163.9409 100.3092 0 -152.7571 100.4203 0 -152.7809 102.6912 0 -147.1453 102.7467 37.96716 -147.5735 147.8534 37.96716 -161.6743 147.709 37.96716 -161.4127 120.4023 37.96716 -162.8673 120.3912 37.96716 -162.8356 117.085 37.96716 -163.6861 117.0739 37.96716 -163.6464 113.5451 37.96716 -171.6189 113.4674 37.96716 -171.6348 115.3487 37.96716 -184.9567 115.2266 37.96716 -184.8536 104.3061 37.96716 -182.4134 104.3283 37.96716 -182.3579 98.25029 37.96716 -163.925 98.42791 37.96716 -163.9409 100.3092 37.96716 -152.7571 100.4203 37.96716 -152.7809 102.6912 37.96716 -31.76412 -149.2265 0 -35.01523 -149.3045 0 -34.69734 -162.2509 0 -1.256057 -161.4495 0 -1.558115 -148.8593 0 -5.52464 -148.9483 0 -6.518217 -107.8826 0 -32.74958 -108.517 0 -31.76412 -149.2265 7.223682 -35.01523 -149.3045 7.223682 -34.69734 -162.2509 7.223682 -1.256057 -161.4495 7.223682 -1.558115 -148.8593 7.223682 -5.52464 -148.9483 7.223682 -6.518217 -107.8826 7.223682 -32.74958 -108.517 7.223682 -174.8255 -7.247401 0 -159.2697 -6.913842 0 -159.5317 5.153198 0 -174.992 4.964352 0 -174.8255 -7.247401 4.609552 -159.2697 -6.913842 4.609552 -159.5317 5.153198 4.609552 -174.992 4.964352 4.609552 -52.93219 -153.1782 0 -53.24206 -135.6009 0 -56.17522 -135.6454 0 -57.16833 -78.17115 0 -54.79957 -78.13777 0 -55.10147 -60.78306 0 -77.03233 -61.17245 0 -76.73048 -78.67189 0 -74.163 -78.62739 0 -73.17004 -136.1016 0 -75.88858 -136.1461 0 -75.58672 -153.5676 0 -52.93219 -153.1782 14.57361 -53.24206 -135.6009 14.57361 -56.17522 -135.6454 14.57361 -57.16833 -78.17115 14.57361 -54.79957 -78.13777 14.57361 -55.10147 -60.78306 14.57361 -77.03233 -61.17245 14.57361 -76.73048 -78.67189 14.57361 -74.163 -78.62739 14.57361 -73.17004 -136.1016 14.57361 -75.88858 -136.1461 14.57361 -75.58672 -153.5676 14.57361 -130.6715 -82.78984 0 -130.7112 -80.85289 0 -107.5403 -80.37464 0 -107.4926 -82.42292 0 -94.81419 -82.16708 0 -95.22723 -61.63975 0 -107.6115 -61.88446 0 -107.5798 -63.42068 0 -131.6409 -63.91004 0 -131.6727 -62.42949 0 -143.9536 -62.67413 0 -143.5328 -83.05674 0 -130.6715 -82.78984 7.72173 -130.7112 -80.85289 7.72173 -107.5403 -80.37464 7.72173 -107.4926 -82.42292 7.72173 -94.81419 -82.16708 7.72173 -95.22723 -61.63975 7.72173 -107.6115 -61.88446 7.72173 -107.5798 -63.42068 7.72173 -131.6409 -63.91004 7.72173 -131.6727 -62.42949 7.72173 -143.9536 -62.67413 7.72173 -143.5328 -83.05674 7.72173 -159.2097 -155.5142 0 -159.5114 -137.9369 0 -162.4445 -137.9813 0 -163.4367 -80.51819 0 -161.0759 -80.47372 0 -161.3775 -63.119 0 -183.3084 -63.50804 0 -182.9989 -81.00747 0 -180.4314 -80.96302 0 -179.4394 -138.4373 0 -182.1579 -138.4817 0 -181.8563 -155.9144 0 -159.2097 -155.5142 13.05231 -159.5114 -137.9369 13.05231 -162.4445 -137.9813 13.05231 -163.4367 -80.51819 13.05231 -161.0759 -80.47372 13.05231 -161.3775 -63.119 13.05231 -183.3084 -63.50804 13.05231 -182.9989 -81.00747 13.05231 -180.4314 -80.96302 13.05231 -179.4394 -138.4373 13.05231 -182.1579 -138.4817 13.05231 -181.8563 -155.9144 13.05231 -75.39353 53.79829 0 -74.87722 23.47486 0 -44.01227 23.99778 0 -44.56847 54.36574 0 -75.39353 53.79829 27.30592 -74.87722 23.47486 27.30592 -44.01227 23.99778 27.30592 -44.56847 54.36574 27.30592 84.04181 28.0502 0 113.937 28.62952 0 113.3721 58.12917 0 83.46913 57.54986 0 84.04181 28.0502 25.57206 113.937 28.62952 25.57206 113.3721 58.12917 25.57206 83.46913 57.54986 25.57206 123.6463 -176.1536 0 123.2406 -159.0438 0 148.709 -158.4422 0 173.6035 -98.9413 0 61.01555 -101.6373 0 62.82863 -177.6128 0 123.6463 -176.1536 15.98522 123.2406 -159.0438 15.98522 148.709 -158.4422 15.98522 173.6035 -98.9413 15.98522 61.01555 -101.6373 15.98522 62.82863 -177.6128 15.98522 -169.0782 5.019855 0 -135.1926 5.486605 0 -135.4624 25.11224 0 -169.3479 24.90152 0 -169.0782 5.019855 14.55701 -135.1926 5.486605 14.55701 -135.4624 25.11224 14.55701 -169.3479 24.90152 14.55701 70.52227 -87.62204 0 60.53054 -87.84478 0 60.65777 -93.44415 0 70.64952 -93.22142 0 70.52227 -87.62204 8.089564 60.53054 -87.84478 8.089564 60.65777 -93.44415 8.089564 70.64952 -93.22142 8.089564 80.9892 52.36234 0 64.79769 52.11725 0 65.03631 36.47687 0 81.2199 36.71082 0 80.9892 52.36234 19.00457 64.79769 52.11725 19.00457 65.03631 36.47687 19.00457 81.2199 36.71082 19.00457 121.0972 115.1583 0 121.0734 111.0506 0 115.8988 111.0839 0 115.7879 93.97409 0 138.4256 93.82982 0 138.5286 110.717 0 132.3525 110.7503 0 132.3763 115.0917 0 121.0972 115.1583 13.45011 121.0734 111.0506 13.45011 115.8988 111.0839 13.45011 115.7879 93.97409 13.45011 138.4256 93.82982 13.45011 138.5286 110.717 13.45011 132.3525 110.7503 13.45011 132.3763 115.0917 13.45011 9.816768 -108.5282 0 18.76723 -108.3167 0 18.34589 -94.19025 0 9.395456 -94.45744 0 9.816768 -108.5282 5 18.76723 -108.3167 5 18.34589 -94.19025 5 9.395456 -94.45744 5 135.2343 -99.86616 0 173.6035 -98.9413 0 182.2663 -43.21452 0 142.7368 -43.8055 0 135.2343 -99.86616 17.24932 173.6035 -98.9413 17.24932 182.2663 -43.21452 17.24932 142.7368 -43.8055 17.24932 145.0187 -69.27536 0 149.224 -84.24773 0 148.5246 -91.59484 0 159.3033 -92.60758 0 166.3935 -84.28071 0 170.7646 -51.54153 0 147.8003 -48.46968 0 145.0187 -69.27536 8 149.224 -84.24773 8 148.5246 -91.59484 8 159.3033 -92.60758 8 166.3935 -84.28071 8 170.7646 -51.54153 8 147.8003 -48.46968 8</float_array>
          <technique_common>
            <accessor source="#map_2_osm_buildings-mesh-positions-array" count="270" stride="3">
              <param name="X" type="float"/>
              <param name="Y" type="float"/>
              <param name="Z" type="float"/>
            </accessor>
          </technique_common>
        </source>
        <source id="map_2_osm_buildings-mesh-normals">
          <float_array id="map_2_osm_buildings-mesh-normals-array" count="804">0.00383526 -0.9999927 0 0.9999905 0.004351317 0 -0.003514468 0.9999939 0 0.9999902 0.00444132 0 -0.005221128 0.9999865 0 -0.9999895 -0.004593014 0 0.005219697 -0.9999864 0 -0.9999899 -0.004505157 0 0.003746271 -0.9999931 0 0.9999914 0.004143476 0 0.007159113 -0.9999744 0 -0.9999917 -0.004076838 0 4.4155e-7 0 1 0.02412956 -0.999709 0 0.9997064 0.02423101 0 -0.02388191 0.9997148 0 -0.9997087 -0.02413535 0 0 0 1 -0.02816754 0.9996032 0 -0.9996173 -0.02766203 0 0.02750152 -0.9996218 0 0.9996727 0.02558493 0 0 0 1 0.00985372 -0.9999516 0 0.9999549 0.009492754 0 -0.0102396 0.9999477 0 -0.9999541 -0.009580016 0 -0.007625937 0.9999709 0 -0.9999539 -0.009599685 0 -0.01306885 0.9999147 0 -0.9999368 -0.01124602 0 -0.009748101 0.9999526 0 0.9999645 0.008421659 0 -0.009163856 0.999958 0 -0.9999555 -0.009434998 0 0.009094536 -0.9999587 0 -0.9999584 -0.009123444 0 0.009635567 -0.9999536 0 0.9999645 0.008435308 0 0.009928703 -0.9999507 0 0.9999451 0.01048761 0 -0.9997072 -0.0242002 0 -0.02395761 0.999713 0 -0.9996987 -0.02454668 0 0.02395766 -0.9997131 0 0.9997124 0.02398449 0 -0.02244859 0.999748 0 0.9997075 0.02418768 0 -0.02417916 0.9997077 0 -0.999907 -0.01364117 0 0.02143782 -0.9997702 0 0.9997645 0.0217058 0 -0.01221388 0.9999255 0 0 0 1 0.01718556 -0.9998524 0 0.9998447 0.01762598 0 -0.01516777 0.999885 0 0.9998508 0.01727652 0 0.01408654 -0.9999009 0 0.9998487 0.0173937 0 -0.01775282 0.9998425 0 -0.9998514 -0.01724702 0 0.0173273 -0.99985 0 -0.9998508 -0.0172739 0 -0.01636493 0.9998662 0 -0.99985 -0.01732414 0 0.02074766 -0.9997848 0 0.9997901 0.02048945 0 0.0206356 -0.9997872 0 -0.9997296 -0.02325582 0 0.02017468 -0.9997965 0 0.9997977 0.02011704 0 -0.01975572 0.9998049 0 -0.9997861 -0.02067983 0 -0.02033394 0.9997933 0 0.9997698 0.02145695 0 -0.01991659 0.9998016 0 -0.999787 -0.02064192 0 0 0 1 0.01766639 -0.999844 0 0.9998528 0.01715779 0 -0.01515728 0.9998852 0 0.999851 0.01726305 0 0.01883417 -0.9998226 0 0.9998491 0.01737785 0 -0.01773649 0.9998427 0 -0.9998437 -0.01768505 0 0.01731222 -0.9998502 0 -0.9998511 -0.01725775 0 -0.01634794 0.9998664 0 -0.9998505 -0.01729589 0 0 0 1 -0.01840549 0.9998307 0 -0.9998551 -0.01702463 0 0.01693969 -0.9998565 0 0.9998324 0.01831251 0 1.3036e-7 0 1 -0.9998117 -0.01940929 0 0.0193746 -0.9998124 0 0.9998168 0.01914411 0 -0.01936936 0.9998124 0 0.02398532 -0.9997124 0 0.999719 0.02370631 0 0.0236169 -0.9997211 0 0.9225115 -0.3859696 0 -0.02393847 0.9997135 0 -0.9997155 -0.02385711 0 0 0 1 -0.9999081 -0.01356482 0 0.01377296 -0.9999052 0 0.9999056 0.01374858 0 -0.006218194 0.9999807 0 0 0 1 0.9997419 0.02272033 0 -0.02228689 0.9997516 0 -0.999742 -0.02271771 0 0.02228611 -0.9997516 0 0 0 1 0.9998915 0.0147379 0 -0.01513499 0.9998855 0 -0.9998837 -0.01525497 0 0.01445454 -0.9998956 0 0 0 1 0.005901634 0.9999826 0 -0.9999833 0.005784273 0 0.006435632 0.9999793 0 -0.999979 0.006486117 0 -0.006372928 -0.9999798 0 0.9999814 -0.006096541 0 0.005387067 0.9999855 0 0.999985 -0.005468606 0 -0.9995521 -0.02992892 0 0.02362626 -0.9997209 0 0.9995555 0.02981227 0 -0.02983874 0.9995548 0 -0.9911635 0.1326457 0 0.02409714 -0.9997097 0 0.9881324 -0.1536053 0 -0.01494866 0.9998883 0 0 0 1 -0.991181 0.132516 0 -0.9627462 -0.2704066 0 -0.9955004 0.09475755 0 -0.09354615 -0.995615 0 0.7613811 -0.6483047 0 0.991205 -0.1323356 0 0.132586 0.9911715 0 0.00383532 -0.9999927 0 0.9999905 0.004352509 0 -0.003514528 0.9999939 0 -0.9999895 -0.004588425 0 -0.9999899 -0.004504382 0 0.003746211 -0.9999931 0 0.9999915 0.004136264 0 -0.9999917 -0.004083931 0 0 0 1 -4.1931e-7 0 1 0.02412956 -0.999709 0 0.9997065 0.02422952 0 -0.0281676 0.9996032 0 0.9996727 0.02558487 0 0 0 1 0.00985372 -0.9999516 0 -0.01023954 0.9999477 0 -0.9999541 -0.009580969 0 -0.007626056 0.999971 0 -0.9999541 -0.009584128 0 -0.01306849 0.9999147 0 -0.999937 -0.01123148 0 -0.00974816 0.9999525 0 -0.9999555 -0.009432613 0 0.009094595 -0.9999587 0 -0.9999584 -0.009127676 0 0.9999452 0.01047629 0 1.21715e-6 0 1 -6.33994e-7 0 1 -3.04388e-7 0 1 -2.2675e-6 0 1 8.76711e-7 0 1 1.36174e-7 0 1 -0.9997072 -0.02420002 0 -0.02395755 0.9997131 0 -0.9996987 -0.02454698 0 0.02395766 -0.999713 0 0.9997124 0.02398449 0 -0.02244859 0.999748 0 -0.0241791 0.9997078 0 0 0 1 0.02143788 -0.9997702 0 0.9997644 0.02170801 0 0.01718556 -0.9998524 0 0.9998508 0.0172767 0 0.9998487 0.01739323 0 -0.01775282 0.9998425 0 -0.9998514 -0.01724606 0 0.01732754 -0.99985 0 -0.9998508 -0.0172742 0 -0.99985 -0.01732319 0 0 0 1 -2.05729e-7 0 1 2.36069e-7 0 1 0 0 1 1.24917e-7 0 1 0.99979 0.02049762 0 0.0206356 -0.999787 0 0.02017474 -0.9997965 0 0.9997977 0.02011781 0 -0.01975572 0.9998049 0 -0.020334 0.9997932 0 -0.01991665 0.9998016 0 0 0 1 0 0 1 0 0 1 0.01766639 -0.999844 0 0.9998528 0.01715564 0 0.999851 0.01726371 0 -0.01773649 0.9998428 0 -0.9998437 -0.0176829 0 0.01731276 -0.9998502 0 -0.01634818 0.9998664 0 0 0 1 2.49649e-7 0 1 0 0 1 0 0 1 0 0 1 -0.01840549 0.9998307 0 -0.9998551 -0.01702404 0 0.9998324 0.01831221 0 0 0 1 -0.9998116 -0.01940995 0 0.0193746 -0.9998124 0 0.9998167 0.01914536 0 0 0 1 0.02398532 -0.9997124 0 0.0236169 -0.9997212 0 0.9225119 -0.3859689 0 -0.02393847 0.9997135 0 -0.9997155 -0.02385723 0 0 0 1 -0.999908 -0.01356649 0 0.01377296 -0.9999052 0 0.9999056 0.01374775 0 0.999742 0.02271765 0 -0.02228689 0.9997516 0 -0.999742 -0.02271497 0 0.02228611 -0.9997516 0 1.36298e-7 0 1 0.9998914 0.01473951 0 -0.01513499 0.9998856 0 -0.9998837 -0.01525419 0 2.4096e-7 0 1 -0.006372928 -0.9999798 0 0.9999814 -0.006097614 0 0.005387127 0.9999855 0 0.999985 -0.005472779 0 0 0 1 0 0 1 -0.9995521 -0.02992898 0 0.02362626 -0.9997209 0 0.9995555 0.02981269 0 -0.02983874 0.9995548 0 -0.9911635 0.1326463 0 -0.01494866 0.9998883 0 0 0 1 -0.9911807 0.1325174 0 -0.09354645 -0.995615 0 0.7613825 -0.6483031 0 0.9912049 -0.1323365 0</float_array>
          <technique_common>
            <accessor source="#map_2_osm_buildings-mesh-normals-array" count="268" stride="3">
              <param name="X" type="float"/>
              <param name="Y" type="float"/>
              <param name="Z" type="float"/>
            </accessor>
          </technique_common>
        </source>
        <vertices id="map_2_osm_buildings-mesh-vertices">
          <input semantic="POSITION" source="#map_2_osm_buildings-mesh-positions"/>
        </vertices>
        <triangles material="wall-material" count="270">
          <input semantic="VERTEX" source="#map_2_osm_buildings-mesh-vertices" offset="0"/>
          <input semantic="NORMAL" source="#map_2_osm_buildings-mesh-normals" offset="1"/>
          <p>0 0 23 0 11 0 1 1 12 1 0 1 2 2 13 2 1 2 3 3 14 3 2 3 4 4 15 4 3 4 5 5 16 5 4 5 6 6 17 6 5 6 7 7 18 7 6 7 8 8 19 8 7 8 9 9 20 9 8 9 10 10 21 10 9 10 11 11 22 11 10 11 24 13 31 13 27 13 25 14 28 14 24 14 26 15 29 15 25 15 27 16 30 16 26 16 32 18 39 18 35 18 33 19 36 19 32 19 34 20 37 20 33 20 35 21 38 21 34 21 40 23 75 23 57 23 41 24 58 24 40 24 42 25 59 25 41 25 43 26 60 26 42 26 44 27 61 27 43 27 45 28 62 28 44 28 46 29 63 29 45 29 47 30 64 30 46 30 48 31 65 31 47 31 49 32 66 32 48 32 50 33 67 33 49 33 51 34 68 34 50 34 52 35 69 35 51 35 53 36 70 36 52 36 54 37 71 37 53 37 55 38 72 38 54 38 56 39 73 39 55 39 57 40 74 40 56 40 76 41 91 41 83 41 77 42 84 42 76 42 78 43 85 43 77 43 79 44 86 44 78 44 80 45 87 45 79 45 81 46 88 46 80 46 82 47 89 47 81 47 83 48 90 48 82 48 92 49 99 49 95 49 93 50 96 50 92 50 94 51 97 51 93 51 95 52 98 52 94 52 100 54 123 54 111 54 101 55 112 55 100 55 102 56 113 56 101 56 103 57 114 57 102 57 104 58 115 58 103 58 105 59 116 59 104 59 106 60 117 60 105 60 107 61 118 61 106 61 108 62 119 62 107 62 109 63 120 63 108 63 110 64 121 64 109 64 111 65 122 65 110 65 124 66 147 66 135 66 125 67 136 67 124 67 126 68 137 68 125 68 127 69 138 69 126 69 128 70 139 70 127 70 129 71 140 71 128 71 130 72 141 72 129 72 131 73 142 73 130 73 132 74 143 74 131 74 133 75 144 75 132 75 134 76 145 76 133 76 135 77 146 77 134 77 148 79 171 79 159 79 149 80 160 80 148 80 150 81 161 81 149 81 151 82 162 82 150 82 152 83 163 83 151 83 153 84 164 84 152 84 154 85 165 85 153 85 155 86 166 86 154 86 156 87 167 87 155 87 157 88 168 88 156 88 158 89 169 89 157 89 159 90 170 90 158 90 172 92 179 92 175 92 173 93 176 93 172 93 174 94 177 94 173 94 175 95 178 95 174 95 180 97 187 97 183 97 181 98 184 98 180 98 182 99 185 99 181 99 183 100 186 100 182 100 188 101 199 101 193 101 189 102 194 102 188 102 190 103 195 103 189 103 191 104 196 104 190 104 192 105 197 105 191 105 193 106 198 106 192 106 200 108 207 108 203 108 201 109 204 109 200 109 202 110 205 110 201 110 203 111 206 111 202 111 208 113 215 113 211 113 209 114 212 114 208 114 210 115 213 115 209 115 211 116 214 116 210 116 216 118 223 118 219 118 217 119 220 119 216 119 218 120 221 120 217 120 219 121 222 121 218 121 224 123 239 123 231 123 225 124 232 124 224 124 226 125 233 125 225 125 227 126 234 126 226 126 228 127 235 127 227 127 229 128 236 128 228 128 230 129 237 129 229 129 231 130 238 130 230 130 240 131 247 131 243 131 241 132 244 132 240 132 242 133 245 133 241 133 243 134 246 134 242 134 248 135 255 135 251 135 249 136 252 136 248 136 250 137 253 137 249 137 251 138 254 138 250 138 256 140 269 140 262 140 257 141 263 141 256 141 258 142 264 142 257 142 259 143 265 143 258 143 260 144 266 144 259 144 261 145 267 145 260 145 262 146 268 146 261 146 0 147 12 147 23 147 1 148 13 148 12 148 2 149 14 149 13 149 3 3 15 3 14 3 4 4 16 4 15 4 5 150 17 150 16 150 6 6 18 6 17 6 7 151 19 151 18 151 8 152 20 152 19 152 9 153 21 153 20 153 10 10 22 10 21 10 11 154 23 154 22 154 24 157 28 157 31 157 25 158 29 158 28 158 26 15 30 15 29 15 27 16 31 16 30 16 32 159 36 159 39 159 33 19 37 19 36 19 34 20 38 20 37 20 35 160 39 160 38 160 40 162 58 162 75 162 41 24 59 24 58 24 42 163 60 163 59 163 43 164 61 164 60 164 44 165 62 165 61 165 45 166 63 166 62 166 46 167 64 167 63 167 47 168 65 168 64 168 48 169 66 169 65 169 49 38 67 38 66 38 50 33 68 33 67 33 51 170 69 170 68 170 52 171 70 171 69 171 53 172 71 172 70 172 54 37 72 37 71 37 55 32 73 32 72 32 56 39 74 39 73 39 57 173 75 173 74 173 76 180 84 180 91 180 77 181 85 181 84 181 78 182 86 182 85 182 79 183 87 183 86 183 80 184 88 184 87 184 81 185 89 185 88 185 82 47 90 47 89 47 83 186 91 186 90 186 92 49 96 49 99 49 93 188 97 188 96 188 94 189 98 189 97 189 95 52 99 52 98 52 100 190 112 190 123 190 101 55 113 55 112 55 102 56 114 56 113 56 103 191 115 191 114 191 104 58 116 58 115 58 105 192 117 192 116 192 106 193 118 193 117 193 107 194 119 194 118 194 108 195 120 195 119 195 109 196 121 196 120 196 110 64 122 64 121 64 111 197 123 197 122 197 124 66 136 66 147 66 125 203 137 203 136 203 126 204 138 204 137 204 127 69 139 69 138 69 128 205 140 205 139 205 129 206 141 206 140 206 130 207 142 207 141 207 131 73 143 73 142 73 132 208 144 208 143 208 133 75 145 75 144 75 134 209 146 209 145 209 135 77 147 77 146 77 148 213 160 213 171 213 149 214 161 214 160 214 150 81 162 81 161 81 151 215 163 215 162 215 152 83 164 83 163 83 153 84 165 84 164 84 154 216 166 216 165 216 155 217 167 217 166 217 156 218 168 218 167 218 157 88 169 88 168 88 158 219 170 219 169 219 159 90 171 90 170 90 172 225 176 225 179 225 173 226 177 226 176 226 174 94 178 94 177 94 175 227 179 227 178 227 180 229 184 229 187 229 181 230 185 230 184 230 182 231 186 231 185 231 183 100 187 100 186 100 188 233 194 233 199 233 189 102 195 102 194 102 190 234 196 234 195 234 191 235 197 235 196 235 192 236 198 236 197 236 193 237 199 237 198 237 200 239 204 239 207 239 201 240 205 240 204 240 202 241 206 241 205 241 203 111 207 111 206 111 208 242 212 242 215 242 209 243 213 243 212 243 210 244 214 244 213 244 211 245 215 245 214 245 216 247 220 247 223 247 217 248 221 248 220 248 218 249 222 249 221 249 219 121 223 121 222 121 224 123 232 123 239 123 225 124 233 124 232 124 226 125 234 125 233 125 227 126 235 126 234 126 228 251 236 251 235 251 229 252 237 252 236 252 230 253 238 253 237 253 231 254 239 254 238 254 240 257 244 257 247 257 241 258 245 258 244 258 242 259 246 259 245 259 243 260 247 260 246 260 248 261 252 261 255 261 249 136 253 136 252 136 250 137 254 137 253 137 251 262 255 262 254 262 256 264 263 264 269 264 257 141 264 141 263 141 258 142 265 142 264 142 259 265 266 265 265 265 260 266 267 266 266 266 261 267 268 267 267 267 262 146 269 146 268 146</p>
        </triangles>
        <triangles material="roof-material" count="97">
          <input semantic="VERTEX" source="#map_2_osm_buildings-mesh-vertices" offset="0"/>
          <input semantic="NORMAL" source="#map_2_osm_buildings-mesh-normals" offset="1"/>
          <p>18 12 19 12 21 12 29 17 31 17 28 17 36 22 38 22 39 22 75 22 65 22 73 22 84 22 86 22 89 22 96 53 98 53 99 53 115 22 117 22 120 22 138 78 141 78 143 78 163 91 165 91 168 91 176 96 178 96 179 96 185 22 187 22 184 22 198 107 199 107 195 107 204 112 206 112 207 112 212 117 214 117 215 117 220 122 222 122 223 122 233 22 235 22 238 22 244 22 246 22 247 22 253 139 255 139 252 139 266 22 267 22 264 22 23 22 12 22 22 22 12 22 13 22 22 22 14 155 15 155 16 155 19 22 20 22 21 22 21 22 22 22 18 22 22 22 13 22 18 22 14 22 16 22 18 22 16 156 17 156 18 156 13 22 14 22 18 22 29 22 30 22 31 22 36 161 37 161 38 161 75 174 58 174 61 174 58 22 59 22 61 22 59 175 60 175 61 175 61 22 62 22 63 22 63 22 64 22 65 22 66 176 67 176 68 176 61 177 63 177 75 177 63 22 65 22 75 22 66 22 68 22 70 22 68 178 69 178 70 178 65 22 66 22 73 22 70 179 71 179 73 179 71 22 72 22 73 22 66 22 70 22 73 22 73 22 74 22 75 22 84 22 85 22 86 22 86 22 87 22 89 22 87 187 88 187 89 187 89 22 90 22 84 22 90 22 91 22 84 22 96 22 97 22 98 22 123 198 112 198 114 198 112 199 113 199 114 199 121 22 122 22 123 22 118 200 119 200 120 200 121 22 123 22 114 22 117 22 118 22 120 22 120 201 121 201 114 201 115 22 116 22 117 22 120 202 114 202 115 202 147 210 136 210 137 210 138 211 139 211 140 211 146 22 147 22 144 22 147 22 137 22 144 22 138 22 140 22 141 22 137 22 138 22 143 22 144 212 137 212 143 212 144 22 145 22 146 22 141 22 142 22 143 22 171 220 160 220 162 220 160 221 161 221 162 221 169 22 170 22 171 22 166 222 167 222 168 222 169 22 171 22 162 22 165 223 166 223 168 223 168 224 169 224 162 224 163 22 164 22 165 22 168 22 162 22 163 22 176 228 177 228 178 228 185 232 186 232 187 232 199 22 194 22 195 22 195 238 196 238 197 238 197 22 198 22 195 22 204 22 205 22 206 22 212 246 213 246 214 246 220 250 221 250 222 250 239 22 232 22 233 22 233 22 234 22 235 22 235 255 236 255 238 255 236 256 237 256 238 256 238 22 239 22 233 22 244 22 245 22 246 22 253 263 254 263 255 263 269 22 263 22 268 22 263 22 264 22 267 22 268 22 263 22 267 22 264 22 265 22 266 22</p>
        </triangles>
      </mesh>
    </geometry>
  </library_geometries>
  <library_visual_scenes>
    <visual_scene id="Scene" name="Scene">
      <node id="map_2_osm_vegetation" name="map_2.osm_vegetation" type="NODE">
        <matrix sid="transform">1 0 0 0 0 1 0 0 0 0 1 0 0 0 0 1</matrix>
        <instance_geometry url="#map_2_osm_vegetation-mesh" name="map_2.osm_vegetation">
          <bind_material>
            <technique_common>
              <instance_material symbol="vegetation-material" target="#vegetation-material"/>
            </technique_common>
          </bind_material>
        </instance_geometry>
      </node>
      <node id="map_2_osm_buildings" name="map_2.osm_buildings" type="NODE">
        <matrix sid="transform">1 0 0 0 0 1 0 0 0 0 1 0 0 0 0 1</matrix>
        <instance_geometry url="#map_2_osm_buildings-mesh" name="map_2.osm_buildings">
          <bind_material>
            <technique_common>
              <instance_material symbol="wall-material" target="#wall-material"/>
              <instance_material symbol="roof-material" target="#roof-material"/>
            </technique_common>
          </bind_material>
        </instance_geometry>
      </node>
      <node id="Camera" name="Camera" type="NODE">
        <matrix sid="transform">0.6859207 -0.3240135 0.6515582 7.358891 0.7276763 0.3054208 -0.6141704 -6.925791 0 0.8953956 0.4452714 4.958309 0 0 0 1</matrix>
        <instance_camera url="#Camera-camera"/>
      </node>
      <node id="Light" name="Light" type="NODE">
        <matrix sid="transform">-0.2908646 -0.7711008 0.5663932 4.076245 0.9551712 -0.1998834 0.2183912 1.005454 -0.05518906 0.6045247 0.7946723 5.903862 0 0 0 1</matrix>
        <instance_light url="#Light-light"/>
      </node>
    </visual_scene>
  </library_visual_scenes>
  <scene>
    <instance_visual_scene url="#Scene"/>
  </scene>
</COLLADA>